<svg width="320" height="327" viewBox="0 0 320 327" fill="none" xmlns="http://www.w3.org/2000/svg">
<path fill-rule="evenodd" clip-rule="evenodd" d="M0 302C0 315.807 11.1929 327 25 327H295C308.807 327 320 315.807 320 302V25C320 11.1929 308.807 0 295 0H25C11.1929 0 0 11.1929 0 25V302Z" fill="#5C2D91"/>
<path fill-rule="evenodd" clip-rule="evenodd" d="M272.315 188.57H263.031V151.724H251.142V143.828H284.204V151.724H272.315V188.57ZM246.29 188.57H221.074V143.828H246.29V151.602H230.357V161.425H245.181V169.199H230.357V180.736H246.29L246.29 188.57ZM210.053 188.57H198.254L179.207 154.723H178.937C179.317 160.701 179.506 164.965 179.506 167.515V188.57H171.211V143.828H182.921L201.937 177.339H202.147C201.847 171.524 201.698 167.413 201.698 165.005V143.828H210.053V188.57ZM151.715 184.194C151.715 182.48 152.164 181.185 153.062 180.307C153.961 179.43 155.268 178.991 156.986 178.991C158.642 178.991 159.925 179.44 160.834 180.338C161.742 181.236 162.196 182.521 162.196 184.194C162.196 185.806 161.737 187.076 160.819 188.004C159.9 188.932 158.623 189.396 156.986 189.396C155.308 189.396 154.011 188.942 153.092 188.034C152.174 187.126 151.715 185.846 151.715 184.194ZM124.492 164.883H127.547C130.402 164.883 132.538 164.307 133.956 163.154C135.373 162.001 136.082 160.323 136.082 158.12C136.082 155.896 135.488 154.254 134.3 153.193C133.112 152.132 131.25 151.602 128.715 151.602H124.492V164.883ZM145.455 157.783C145.455 162.598 143.983 166.28 141.038 168.831C138.094 171.381 133.906 172.656 128.475 172.657H124.492V188.57H115.208V143.828H129.194C134.505 143.828 138.543 144.996 141.308 147.333C144.073 149.668 145.455 153.152 145.455 157.783ZM107.272 176.145C107.272 180.185 105.849 183.367 103.004 185.693C100.159 188.019 96.2014 189.182 91.1301 189.182C86.4581 189.182 82.3253 188.284 78.7317 186.489V177.675C81.6864 179.022 84.187 179.97 86.2336 180.521C88.2798 181.072 90.1514 181.348 91.8485 181.348C93.8851 181.348 95.4474 180.95 96.5354 180.154C97.6234 179.358 98.1674 178.175 98.1674 176.604C98.1674 175.727 97.928 174.947 97.449 174.263C96.9697 173.58 96.2659 172.922 95.3376 172.289C94.4092 171.657 92.5177 170.647 89.6629 169.259C86.987 167.974 84.9804 166.74 83.6432 165.556C82.3052 164.373 81.237 162.996 80.4384 161.425C79.6398 159.854 79.2405 158.018 79.2405 155.916C79.2405 151.959 80.5532 148.848 83.1786 146.583C85.8044 144.318 89.4332 143.186 94.065 143.186C96.3406 143.186 98.5118 143.461 100.579 144.012C102.645 144.562 104.806 145.338 107.062 146.338L104.067 153.713C101.731 152.734 99.7996 152.051 98.2725 151.663C96.745 151.275 95.2428 151.081 93.7658 151.081C92.0087 151.081 90.6608 151.499 89.7221 152.336C88.7838 153.172 88.3146 154.264 88.3146 155.611C88.3146 156.447 88.5043 157.176 88.8837 157.799C89.2634 158.421 89.8674 159.023 90.6954 159.604C91.5242 160.186 93.4858 161.231 96.5802 162.741C100.673 164.741 103.479 166.745 104.996 168.754C106.513 170.764 107.272 173.228 107.272 176.145ZM65.9136 188.57L62.7392 177.92H46.777L43.6026 188.57H33.6L49.0533 143.645H60.4032L75.9162 188.57H65.9136ZM60.5232 169.964C57.5884 160.314 55.9363 154.856 55.5669 153.591C55.1971 152.326 54.9326 151.326 54.7733 150.592C54.1145 153.203 52.2277 159.66 49.113 169.963L60.5232 169.964Z" fill="white"/>
</svg>
